<svg xmlns="http://www.w3.org/2000/svg" width="760" height="462" viewBox="0 0 760 462" role="img" aria-labelledby="title desc">
<title id="title">Reported affected counts by label</title>
<desc id="desc">Sums across reports; individuals may overlap. Hacking/IT Incident: 6,600,874; Unauthorized Access/Disclosure: 90,876; Theft: 538</desc>
<defs><marker id="arrow" viewBox="0 0 10 10" refX="9" refY="5" markerWidth="8" markerHeight="8" orient="auto-start-reverse"><path d="M 0 0 L 10 5 L 0 10 z" fill="#147d83"/></marker></defs>
<rect width="760" height="100%" rx="8" fill="#ffffff"/>
<g font-family="Arial, Helvetica, sans-serif">
<rect x="30" y="28" width="42" height="5" fill="#147d83"/>
<text x="30" y="70" font-size="29" font-weight="700" fill="#142b43">Reported affected counts by label</text>
<text x="30" y="126" font-size="18" font-weight="400" fill="#46576a">Sums across reports; individuals may overlap.</text>
<text x="30" y="160" font-size="21" font-weight="700" fill="#142b43">Hacking/IT Incident</text>
<rect x="30" y="176" width="540" height="22" rx="3" fill="#e6edf2"/>
<rect x="30" y="176" width="540.00" height="22" rx="3" fill="#147d83"/>
<text x="595" y="196" font-size="23" font-weight="700" fill="#142b43">6,600,874</text>
<text x="30" y="256" font-size="21" font-weight="700" fill="#142b43">Unauthorized Access/Disclosure</text>
<rect x="30" y="272" width="540" height="22" rx="3" fill="#e6edf2"/>
<rect x="30" y="272" width="7.43" height="22" rx="3" fill="#147d83"/>
<text x="595" y="292" font-size="23" font-weight="700" fill="#142b43">90,876</text>
<text x="30" y="352" font-size="21" font-weight="700" fill="#142b43">Theft</text>
<rect x="30" y="368" width="540" height="22" rx="3" fill="#e6edf2"/>
<rect x="30" y="368" width="0.04" height="22" rx="3" fill="#147d83"/>
<text x="595" y="388" font-size="23" font-weight="700" fill="#142b43">538</text>
</g></svg>
