<svg xmlns="http://www.w3.org/2000/svg" width="1120" height="732" viewBox="0 0 1120 732" role="img" aria-labelledby="title desc" data-qc-version="2" data-qc-polish="true">
<title id="title">Breach Type Distribution</title>
<desc id="desc">Public OCR records grouped by reported breach type.</desc>
<defs>
<linearGradient id="canvasGrad" x1="0" x2="1" y1="0" y2="1">
<stop offset="0%" stop-color="#f8fbff"/>
<stop offset="100%" stop-color="#eef3f8"/>
</linearGradient>
<filter id="cardShadow" x="-8%" y="-8%" width="116%" height="116%">
<feDropShadow dx="0" dy="8" stdDeviation="10" flood-color="#0f172a" flood-opacity="0.08"/>
</filter>
<marker id="arrowHead" markerWidth="14" markerHeight="14" refX="12" refY="7" orient="auto" markerUnits="strokeWidth">
<path d="M2,2 L12,7 L2,12 Z" fill="#172033"/>
</marker>
<style>
.font { font-family: Segoe UI, Arial, Helvetica, sans-serif; }
</style>
</defs>
<rect width="100%" height="100%" fill="#ffffff"/>
<rect data-qc-frame="true" x="24" y="24" width="1072" height="684" rx="28" fill="url(#canvasGrad)" stroke="#d8dee9"/>
<path d="M44 122 H1236" stroke="#dde6f3" stroke-width="1"/>
<rect x="64" y="58" width="168" height="28" rx="14" fill="#e8eefc"/>
<text class="font" x="84" y="78" font-size="12" font-weight="700" fill="#1f5eff" text-anchor="start">Project 1</text>
<rect x="850" y="58" width="198" height="30" rx="15" fill="#ecfdf5" stroke="#b8e7d6"/>
<text class="font" x="870" y="78" font-size="12" font-weight="700" fill="#087f5b" text-anchor="start">QC-ready artifact</text>
<text class="font" x="64" y="126" font-size="34" font-weight="800" fill="#172033" text-anchor="start">Breach Type Distribution</text>
<text class="font" x="64" y="158" font-size="16" font-weight="400" fill="#667085" text-anchor="start">Public OCR records grouped by reported breach type.</text>
<g data-qc-card="true">
<rect x="72" y="178" width="976" height="358" rx="22" fill="#ffffff" stroke="#d8dee9" filter="url(#cardShadow)"/>
<rect x="72" y="178" width="976" height="7" rx="3.5" fill="#1f5eff"/>
<text class="font" x="98" y="220" font-size="18" font-weight="800" fill="#172033" text-anchor="start">Evidence View</text>
<text class="font" x="98" y="244" font-size="13" font-weight="400" fill="#667085" text-anchor="start">Generated from the local HHS OCR sample.</text>
<line x1="518" y1="268" x2="518" y2="487" stroke="#edf1f7" stroke-width="1"/>
<line x1="661" y1="268" x2="661" y2="487" stroke="#edf1f7" stroke-width="1"/>
<line x1="803" y1="268" x2="803" y2="487" stroke="#edf1f7" stroke-width="1"/>
<line x1="946" y1="268" x2="946" y2="487" stroke="#edf1f7" stroke-width="1"/>
<rect x="98" y="276" width="28" height="28" rx="14" fill="#eef3ff"/>
<text class="font" x="112" y="297" font-size="11" font-weight="800" fill="#1f5eff" text-anchor="middle">1</text>
<text class="font" x="138" y="298" font-size="12" font-weight="600" fill="#172033" text-anchor="start">Hacking/IT Incident</text>
<rect x="376" y="280" width="570" height="24" rx="12" fill="#e6ebf2"/>
<rect x="376" y="280" width="570" height="24" rx="12" fill="#1f5eff"/>
<text class="font" x="960" y="298" font-size="12" font-weight="800" fill="#172033" text-anchor="start">88</text>
<rect x="98" y="351" width="28" height="28" rx="14" fill="#eef3ff"/>
<text class="font" x="112" y="372" font-size="11" font-weight="800" fill="#1f5eff" text-anchor="middle">2</text>
<text class="font" x="138" y="373" font-size="12" font-weight="600" fill="#172033" text-anchor="start">Unauthorized</text>
<text class="font" x="138" y="388" font-size="12" font-weight="600" fill="#172033" text-anchor="start">Access/Disclosure</text>
<rect x="376" y="355" width="570" height="24" rx="12" fill="#e6ebf2"/>
<rect x="376" y="355" width="71" height="24" rx="12" fill="#1f5eff"/>
<text class="font" x="960" y="373" font-size="12" font-weight="800" fill="#172033" text-anchor="start">11</text>
<rect x="98" y="426" width="28" height="28" rx="14" fill="#eef3ff"/>
<text class="font" x="112" y="447" font-size="11" font-weight="800" fill="#1f5eff" text-anchor="middle">3</text>
<text class="font" x="138" y="448" font-size="12" font-weight="600" fill="#172033" text-anchor="start">Theft</text>
<rect x="376" y="430" width="570" height="24" rx="12" fill="#e6ebf2"/>
<rect x="376" y="430" width="6" height="24" rx="12" fill="#1f5eff"/>
<text class="font" x="960" y="448" font-size="12" font-weight="800" fill="#172033" text-anchor="start">1</text>
</g>
<g data-qc-card="true">
<rect x="72" y="556" width="976" height="112" rx="22" fill="#ffffff" stroke="#d8dee9" filter="url(#cardShadow)"/>
<rect x="72" y="556" width="976" height="7" rx="3.5" fill="#1f5eff"/>
<text class="font" x="96" y="598" font-size="16" font-weight="800" fill="#172033" text-anchor="start">How To Read It</text>
<text class="font" x="96" y="628" font-size="13" font-weight="400" fill="#667085" text-anchor="start">Use the chart as a prioritization signal, then validate</text>
<text class="font" x="96" y="648" font-size="13" font-weight="400" fill="#667085" text-anchor="start">local controls, ownership, and exposure.</text>
</g>
<g data-qc-footer="true">
<rect x="48" y="656" width="1024" height="34" rx="17" fill="#ffffff" stroke="#dbe3ef"/>
<text class="font" x="70" y="678" font-size="12" font-weight="600" fill="#667085" text-anchor="start">Source: HHS OCR sample, collected 2026-05-16</text>
<text class="font" x="1050" y="678" font-size="12" font-weight="700" fill="#087f5b" text-anchor="end">QC gate enforced</text>
</g>
</svg>