<svg xmlns="http://www.w3.org/2000/svg" width="1120" height="972" viewBox="0 0 1120 972" role="img" aria-labelledby="title desc" data-qc-version="1">
<title id="title">Location Of Breached Information</title>
<desc id="desc">Reported information locations in the sampled records.</desc>
<defs>
<marker id="arrowHead" markerWidth="14" markerHeight="14" refX="12" refY="7" orient="auto" markerUnits="strokeWidth">
<path d="M2,2 L12,7 L2,12 Z" fill="#172033"/>
</marker>
<style>
.font { font-family: Segoe UI, Arial, Helvetica, sans-serif; }
</style>
</defs>
<rect width="100%" height="100%" fill="#ffffff"/>
<rect x="24" y="24" width="1072" height="924" rx="24" fill="#f5f7fb" stroke="#d8dee9"/>
<rect x="64" y="58" width="168" height="28" rx="14" fill="#e8eefc"/>
<text class="font" x="84" y="78" font-size="12" font-weight="700" fill="#1f5eff" text-anchor="start">Project 1</text>
<text class="font" x="64" y="126" font-size="34" font-weight="800" fill="#172033" text-anchor="start">Location Of Breached Information</text>
<text class="font" x="64" y="158" font-size="16" font-weight="400" fill="#667085" text-anchor="start">Reported information locations in the sampled records.</text>
<g data-qc-card="true">
<rect x="72" y="178" width="976" height="598" rx="18" fill="#ffffff" stroke="#d8dee9"/>
<rect x="72" y="178" width="976" height="7" rx="3.5" fill="#0f9f9a"/>
<text class="font" x="98" y="220" font-size="18" font-weight="800" fill="#172033" text-anchor="start">Evidence View</text>
<text class="font" x="98" y="244" font-size="13" font-weight="400" fill="#667085" text-anchor="start">Generated from the local HHS OCR sample.</text>
<text class="font" x="98" y="298" font-size="12" font-weight="600" fill="#172033" text-anchor="start">Network Server</text>
<rect x="376" y="280" width="570" height="24" rx="12" fill="#e6ebf2"/>
<rect x="376" y="280" width="570" height="24" rx="12" fill="#0f9f9a"/>
<text class="font" x="960" y="298" font-size="12" font-weight="800" fill="#172033" text-anchor="start">60</text>
<text class="font" x="98" y="356" font-size="12" font-weight="600" fill="#172033" text-anchor="start">Email</text>
<rect x="376" y="338" width="570" height="24" rx="12" fill="#e6ebf2"/>
<rect x="376" y="338" width="199" height="24" rx="12" fill="#0f9f9a"/>
<text class="font" x="960" y="356" font-size="12" font-weight="800" fill="#172033" text-anchor="start">21</text>
<text class="font" x="98" y="414" font-size="12" font-weight="600" fill="#172033" text-anchor="start">Electronic Medical Record</text>
<rect x="376" y="396" width="570" height="24" rx="12" fill="#e6ebf2"/>
<rect x="376" y="396" width="47" height="24" rx="12" fill="#0f9f9a"/>
<text class="font" x="960" y="414" font-size="12" font-weight="800" fill="#172033" text-anchor="start">5</text>
<text class="font" x="98" y="472" font-size="12" font-weight="600" fill="#172033" text-anchor="start">Network Server, Other</text>
<rect x="376" y="454" width="570" height="24" rx="12" fill="#e6ebf2"/>
<rect x="376" y="454" width="47" height="24" rx="12" fill="#0f9f9a"/>
<text class="font" x="960" y="472" font-size="12" font-weight="800" fill="#172033" text-anchor="start">5</text>
<text class="font" x="98" y="530" font-size="12" font-weight="600" fill="#172033" text-anchor="start">Other</text>
<rect x="376" y="512" width="570" height="24" rx="12" fill="#e6ebf2"/>
<rect x="376" y="512" width="19" height="24" rx="12" fill="#0f9f9a"/>
<text class="font" x="960" y="530" font-size="12" font-weight="800" fill="#172033" text-anchor="start">2</text>
<text class="font" x="98" y="588" font-size="12" font-weight="600" fill="#172033" text-anchor="start">Paper/Films</text>
<rect x="376" y="570" width="570" height="24" rx="12" fill="#e6ebf2"/>
<rect x="376" y="570" width="19" height="24" rx="12" fill="#0f9f9a"/>
<text class="font" x="960" y="588" font-size="12" font-weight="800" fill="#172033" text-anchor="start">2</text>
<text class="font" x="98" y="646" font-size="12" font-weight="600" fill="#172033" text-anchor="start">Email, Network Server,</text>
<text class="font" x="98" y="661" font-size="12" font-weight="600" fill="#172033" text-anchor="start">Other</text>
<rect x="376" y="628" width="570" height="24" rx="12" fill="#e6ebf2"/>
<rect x="376" y="628" width="9" height="24" rx="12" fill="#0f9f9a"/>
<text class="font" x="960" y="646" font-size="12" font-weight="800" fill="#172033" text-anchor="start">1</text>
<text class="font" x="98" y="704" font-size="12" font-weight="600" fill="#172033" text-anchor="start">Other, Paper/Films</text>
<rect x="376" y="686" width="570" height="24" rx="12" fill="#e6ebf2"/>
<rect x="376" y="686" width="9" height="24" rx="12" fill="#0f9f9a"/>
<text class="font" x="960" y="704" font-size="12" font-weight="800" fill="#172033" text-anchor="start">1</text>
</g>
<g data-qc-card="true">
<rect x="72" y="796" width="976" height="112" rx="18" fill="#ffffff" stroke="#d8dee9"/>
<rect x="72" y="796" width="976" height="7" rx="3.5" fill="#0f9f9a"/>
<text class="font" x="96" y="838" font-size="16" font-weight="800" fill="#172033" text-anchor="start">How To Read It</text>
<text class="font" x="96" y="868" font-size="13" font-weight="400" fill="#667085" text-anchor="start">Use the chart as a prioritization signal, then validate</text>
<text class="font" x="96" y="888" font-size="13" font-weight="400" fill="#667085" text-anchor="start">local controls, ownership, and exposure.</text>
</g>
</svg>