<svg xmlns="http://www.w3.org/2000/svg" width="980" height="652" viewBox="0 0 980 652" role="img" aria-labelledby="title desc">
<title id="title">Location Of Breached Information</title>
<desc id="desc">Record count by reported information location</desc>
<rect width="100%" height="100%" fill="#ffffff"/>
<rect x="18" y="18" width="944" height="616" rx="14" fill="#f8fafc" stroke="#dbe3ef"/>
<text fill="#0f172a" font-size="24" font-weight="700"><tspan x="42" dy="0">Location Of Breached Information</tspan></text>
<text fill="#475569" font-size="13" font-weight="400"><tspan x="42" dy="0">Record count by reported information location</tspan></text>
<text fill="#0f172a" font-size="14" font-weight="600"><tspan x="42" dy="0">Network Server</tspan></text>
<rect x="275" y="116" width="560" height="26" rx="13" fill="#e2e8f0"/>
<rect x="275" y="116" width="560" height="26" rx="13" fill="#2563eb"/>
<text x="857" y="135" fill="#0f172a" font-size="14" font-weight="700">60</text>
<text fill="#0f172a" font-size="14" font-weight="600"><tspan x="42" dy="0">Email</tspan></text>
<rect x="275" y="174" width="560" height="26" rx="13" fill="#e2e8f0"/>
<rect x="275" y="174" width="196" height="26" rx="13" fill="#0891b2"/>
<text x="857" y="193" fill="#0f172a" font-size="14" font-weight="700">21</text>
<text fill="#0f172a" font-size="14" font-weight="600"><tspan x="42" dy="0">Electronic Medical Record</tspan></text>
<rect x="275" y="232" width="560" height="26" rx="13" fill="#e2e8f0"/>
<rect x="275" y="232" width="46" height="26" rx="13" fill="#16a34a"/>
<text x="857" y="251" fill="#0f172a" font-size="14" font-weight="700">5</text>
<text fill="#0f172a" font-size="14" font-weight="600"><tspan x="42" dy="0">Network Server, Other</tspan></text>
<rect x="275" y="290" width="560" height="26" rx="13" fill="#e2e8f0"/>
<rect x="275" y="290" width="46" height="26" rx="13" fill="#ca8a04"/>
<text x="857" y="309" fill="#0f172a" font-size="14" font-weight="700">5</text>
<text fill="#0f172a" font-size="14" font-weight="600"><tspan x="42" dy="0">Other</tspan></text>
<rect x="275" y="348" width="560" height="26" rx="13" fill="#e2e8f0"/>
<rect x="275" y="348" width="18" height="26" rx="13" fill="#dc2626"/>
<text x="857" y="367" fill="#0f172a" font-size="14" font-weight="700">2</text>
<text fill="#0f172a" font-size="14" font-weight="600"><tspan x="42" dy="0">Paper/Films</tspan></text>
<rect x="275" y="406" width="560" height="26" rx="13" fill="#e2e8f0"/>
<rect x="275" y="406" width="18" height="26" rx="13" fill="#7c3aed"/>
<text x="857" y="425" fill="#0f172a" font-size="14" font-weight="700">2</text>
<text fill="#0f172a" font-size="14" font-weight="600"><tspan x="42" dy="0">Email, Network Server, Other</tspan></text>
<rect x="275" y="464" width="560" height="26" rx="13" fill="#e2e8f0"/>
<rect x="275" y="464" width="9" height="26" rx="13" fill="#475569"/>
<text x="857" y="483" fill="#0f172a" font-size="14" font-weight="700">1</text>
<text fill="#0f172a" font-size="14" font-weight="600"><tspan x="42" dy="0">Other, Paper/Films</tspan></text>
<rect x="275" y="522" width="560" height="26" rx="13" fill="#e2e8f0"/>
<rect x="275" y="522" width="9" height="26" rx="13" fill="#0f766e"/>
<text x="857" y="541" fill="#0f172a" font-size="14" font-weight="700">1</text>
</svg>