<svg xmlns="http://www.w3.org/2000/svg" width="1280" height="760" viewBox="0 0 1280 760" role="img" aria-labelledby="title desc" data-qc-version="1">
<title id="title">Scattered Spider identity tradecraft flow</title>
<desc id="desc">Premium visual attack-flow summary for Scattered Spider CTI.</desc>
<defs>
<marker id="arrowHead" markerWidth="14" markerHeight="14" refX="12" refY="7" orient="auto" markerUnits="strokeWidth">
<path d="M2,2 L12,7 L2,12 Z" fill="#172033"/>
</marker>
<style>
.font { font-family: Segoe UI, Arial, Helvetica, sans-serif; }
</style>
</defs>
<rect width="100%" height="100%" fill="#ffffff"/>
<rect x="24" y="24" width="1232" height="712" rx="24" fill="#f5f7fb" stroke="#d8dee9"/>
<rect x="64" y="58" width="168" height="28" rx="14" fill="#e8eefc"/>
<text class="font" x="84" y="78" font-size="12" font-weight="700" fill="#1f5eff" text-anchor="start">Project 3</text>
<text class="font" x="64" y="126" font-size="34" font-weight="800" fill="#172033" text-anchor="start">Identity Tradecraft Flow</text>
<text class="font" x="64" y="158" font-size="16" font-weight="400" fill="#667085" text-anchor="start">A public-source CTI view of how trust abuse can become business impact.</text>
<g data-qc-card="true">
<rect x="76" y="198" width="242" height="126" rx="18" fill="#ffffff" stroke="#d8dee9"/>
<rect x="76" y="198" width="242" height="7" rx="3.5" fill="#1f5eff"/>
<text class="font" x="100" y="240" font-size="16" font-weight="800" fill="#172033" text-anchor="start">Identity Research</text>
<text class="font" x="100" y="270" font-size="13" font-weight="400" fill="#667085" text-anchor="start">Names, roles, routines</text>
<text class="font" x="100" y="290" font-size="13" font-weight="400" fill="#667085" text-anchor="start">and support context</text>
</g>
<g data-qc-card="true">
<rect x="384" y="198" width="242" height="126" rx="18" fill="#ffffff" stroke="#d8dee9"/>
<rect x="384" y="198" width="242" height="7" rx="3.5" fill="#0f9f9a"/>
<text class="font" x="408" y="240" font-size="16" font-weight="800" fill="#172033" text-anchor="start">Trust Manipulation</text>
<text class="font" x="408" y="270" font-size="13" font-weight="400" fill="#667085" text-anchor="start">Voice phishing and</text>
<text class="font" x="408" y="290" font-size="13" font-weight="400" fill="#667085" text-anchor="start">help desk pressure</text>
</g>
<g data-qc-card="true">
<rect x="692" y="198" width="242" height="126" rx="18" fill="#ffffff" stroke="#d8dee9"/>
<rect x="692" y="198" width="242" height="7" rx="3.5" fill="#1f9d55"/>
<text class="font" x="716" y="240" font-size="16" font-weight="800" fill="#172033" text-anchor="start">Account Takeover</text>
<text class="font" x="716" y="270" font-size="13" font-weight="400" fill="#667085" text-anchor="start">Reset credentials or</text>
<text class="font" x="716" y="290" font-size="13" font-weight="400" fill="#667085" text-anchor="start">reuse active sessions</text>
</g>
<g data-qc-card="true">
<rect x="384" y="414" width="242" height="126" rx="18" fill="#ffffff" stroke="#d8dee9"/>
<rect x="384" y="414" width="242" height="7" rx="3.5" fill="#c97a10"/>
<text class="font" x="408" y="456" font-size="16" font-weight="800" fill="#172033" text-anchor="start">MFA Change</text>
<text class="font" x="408" y="486" font-size="13" font-weight="400" fill="#667085" text-anchor="start">New factors, fatigue,</text>
<text class="font" x="408" y="506" font-size="13" font-weight="400" fill="#667085" text-anchor="start">or auth process abuse</text>
</g>
<g data-qc-card="true">
<rect x="692" y="414" width="242" height="126" rx="18" fill="#ffffff" stroke="#d8dee9"/>
<rect x="692" y="414" width="242" height="7" rx="3.5" fill="#6f56d9"/>
<text class="font" x="716" y="456" font-size="16" font-weight="800" fill="#172033" text-anchor="start">SaaS Discovery</text>
<text class="font" x="716" y="486" font-size="13" font-weight="400" fill="#667085" text-anchor="start">Mail, files, repos,</text>
<text class="font" x="716" y="506" font-size="13" font-weight="400" fill="#667085" text-anchor="start">and response channels</text>
</g>
<g data-qc-card="true">
<rect x="1000" y="414" width="204" height="126" rx="18" fill="#ffffff" stroke="#d8dee9"/>
<rect x="1000" y="414" width="204" height="7" rx="3.5" fill="#cc3f3f"/>
<text class="font" x="1024" y="456" font-size="16" font-weight="800" fill="#172033" text-anchor="start">Data Pressure</text>
<text class="font" x="1024" y="486" font-size="13" font-weight="400" fill="#667085" text-anchor="start">Exfiltration</text>
<text class="font" x="1024" y="506" font-size="13" font-weight="400" fill="#667085" text-anchor="start">and recovery impact</text>
</g>
<path data-qc-arrow="true" d="M318 261 H374" fill="none" stroke="#172033" stroke-width="3" stroke-linecap="round" stroke-linejoin="round" marker-end="url(#arrowHead)"/>
<path data-qc-arrow="true" d="M626 261 H682" fill="none" stroke="#172033" stroke-width="3" stroke-linecap="round" stroke-linejoin="round" marker-end="url(#arrowHead)"/>
<path data-qc-arrow="true" d="M813 324 C813 366 505 366 505 404" fill="none" stroke="#172033" stroke-width="3" stroke-linecap="round" stroke-linejoin="round" marker-end="url(#arrowHead)"/>
<path data-qc-arrow="true" d="M626 477 H682" fill="none" stroke="#172033" stroke-width="3" stroke-linecap="round" stroke-linejoin="round" marker-end="url(#arrowHead)"/>
<path data-qc-arrow="true" d="M934 477 H990" fill="none" stroke="#172033" stroke-width="3" stroke-linecap="round" stroke-linejoin="round" marker-end="url(#arrowHead)"/>
<g data-qc-card="true">
<rect x="76" y="596" width="1128" height="132" rx="18" fill="#ffffff" stroke="#d8dee9"/>
<rect x="76" y="596" width="1128" height="7" rx="3.5" fill="#1f5eff"/>
<text class="font" x="100" y="638" font-size="16" font-weight="800" fill="#172033" text-anchor="start">Defensive Focus</text>
<text class="font" x="100" y="668" font-size="13" font-weight="400" fill="#667085" text-anchor="start">Harden identity proofing, govern MFA changes, watch SaaS</text>
<text class="font" x="100" y="688" font-size="13" font-weight="400" fill="#667085" text-anchor="start">access, control remote tools, and rehearse data-theft</text>
<text class="font" x="100" y="708" font-size="13" font-weight="400" fill="#667085" text-anchor="start">response.</text>
</g>
</svg>